<svg class="lds-gear" width="200px"  height="200px"  xmlns="http://www.w3.org/2000/svg" xmlns:xlink="http://www.w3.org/1999/xlink" viewBox="0 0 100 100" preserveAspectRatio="xMidYMid" style="background: none;"><g transform="translate(50 50)">
<g transform="rotate(203.054)">
<animateTransform attributeName="transform" type="rotate" values="0;360" keyTimes="0;1" dur="2.6s" repeatCount="indefinite"></animateTransform><path d="M37.25251669350676 -7.5 L49.25251669350676 -7.5 L49.25251669350676 7.5 L37.25251669350676 7.5 A38 38 0 0 1 29.090300370483916 24.449016838208916 L29.090300370483916 24.449016838208916 L36.57217799278872 33.83099462782528 L24.84470575576828 43.18334165570628 L17.362828133463477 33.80136386608992 A38 38 0 0 1 -0.9775054654986426 37.987425328191435 L-0.9775054654986426 37.987425328191435 L-3.647756672974414 49.68656027437332 L-18.27167535570176 46.34874626502861 L-15.601424148225988 34.64961131884672 A38 38 0 0 1 -30.309229748483073 22.92052774378611 L-30.309229748483073 22.92052774378611 L-41.1208561633121 28.127132613196807 L-47.62911225007547 14.61259959466053 L-36.817485835246444 9.405994725249831 A38 38 0 0 1 -36.817485835246444 -9.405994725249823 L-36.817485835246444 -9.405994725249823 L-47.62911225007547 -14.612599594660518 L-41.120856163312105 -28.1271326131968 L-30.309229748483077 -22.920527743786103 A38 38 0 0 1 -15.601424148226013 -34.64961131884671 L-15.601424148226013 -34.64961131884671 L-18.271675355701788 -46.348746265028595 L-3.64775667297441 -49.68656027437332 L-0.9775054654986352 -37.987425328191435 A38 38 0 0 1 17.362828133463452 -33.80136386608993 L17.362828133463452 -33.80136386608993 L24.844705755768253 -43.183341655706286 L36.572177992788724 -33.83099462782528 L29.090300370483924 -24.449016838208916 A38 38 0 0 1 37.252516693506756 -7.500000000000021 M0 -20A20 20 0 1 0 0 20 A20 20 0 1 0 0 -20" fill="#93dbe9"></path></g></g></svg>